<?xml version="1.0" encoding="UTF-8" standalone="no"?>
<svg
   width="22.508472"
   height="22.508474"
   fill="currentColor"
   class="bi bi-pin-map"
   viewBox="0 0 22.508472 22.508473"
   version="1.1"
   id="svg6"
   sodipodi:docname="pin-map.svg"
   inkscape:version="1.2.2 (732a01da63, 2022-12-09)"
   xmlns:inkscape="http://www.inkscape.org/namespaces/inkscape"
   xmlns:sodipodi="http://sodipodi.sourceforge.net/DTD/sodipodi-0.dtd"
   xmlns="http://www.w3.org/2000/svg"
   xmlns:svg="http://www.w3.org/2000/svg">
  <defs
     id="defs10" />
  <sodipodi:namedview
     id="namedview8"
     pagecolor="#ffffff"
     bordercolor="#000000"
     borderopacity="0.25"
     inkscape:showpageshadow="2"
     inkscape:pageopacity="0.0"
     inkscape:pagecheckerboard="0"
     inkscape:deskcolor="#d1d1d1"
     showgrid="false"
     showguides="false"
     inkscape:lockguides="true"
     inkscape:zoom="7.375"
     inkscape:cx="-3.7288136"
     inkscape:cy="6.8474576"
     inkscape:window-width="1920"
     inkscape:window-height="1009"
     inkscape:window-x="-8"
     inkscape:window-y="-8"
     inkscape:window-maximized="1"
     inkscape:current-layer="svg6">
    <sodipodi:guide
       position="8,9"
       orientation="1,0"
       id="guide399"
       inkscape:locked="true" />
    <sodipodi:guide
       position="7.9579475,2"
       orientation="0,-1"
       id="guide401"
       inkscape:locked="true" />
    <sodipodi:guide
       position="12,11.925147"
       orientation="0,-1"
       id="guide1180"
       inkscape:locked="true" />
    <sodipodi:guide
       position="5,5"
       orientation="1,0"
       id="guide2072"
       inkscape:locked="true" />
    <sodipodi:guide
       position="11,5"
       orientation="1,0"
       id="guide2074"
       inkscape:locked="true" />
    <sodipodi:guide
       position="22.632812,36.555025"
       orientation="0,-1"
       id="guide2303"
       inkscape:locked="true" />
  </sodipodi:namedview>
  <circle
     style="fill:#008080;fill-opacity:1;stroke:none;stroke-width:1;stroke-dasharray:none;stroke-opacity:1"
     id="path2418"
     cx="11.254235"
     cy="11.254236"
     r="11.254237"
     inkscape:export-filename="..\Documents\Proyectos\mytinerary-christianLedesma\public\favicon.svg"
     inkscape:export-xdpi="96"
     inkscape:export-ydpi="96" />
  <path
     id="path2360"
     style="fill:#e9fffb;fill-opacity:1"
     d="m 11.255022,4.9515015 c -1.3692686,0 -2.4902336,1.12096 -2.4902336,2.490235 0,1.198115 0.858377,2.206176 1.9902336,2.439453 v 0.07813 0.8261725 4.271484 c 0,0.666661 1,0.666661 1,0 v -4.271484 -0.8261725 -0.07813 c 1.131863,-0.233277 1.990235,-1.241338 1.990235,-2.439453 0,-1.369275 -1.120959,-2.490235 -2.490235,-2.490235 z m 0,1 c 0.828846,0 1.490235,0.661394 1.490235,1.490235 0,0.82884 -0.661389,1.490234 -1.490235,1.490234 -0.82884,0 -1.4902336,-0.661394 -1.4902336,-1.490234 0,-0.828841 0.6613936,-1.490235 1.4902336,-1.490235 z M 8.0050224,12.556971 c -0.157374,0 -0.305959,0.07527 -0.40039,0.201172 l -3,4 c -0.247213,0.329615 -0.01163,0.798828 0.40039,0.798828 H 17.505022 c 0.41202,0 0.645652,-0.469213 0.398438,-0.798828 l -3,-4 c -0.09443,-0.1259 -0.241059,-0.201172 -0.398438,-0.201172 h -1.25 c -0.666663,0 -0.666663,1 0,1 h 1 l 2.25,3 H 6.0050224 l 2.25,-3 h 1 c 0.666668,0 0.666668,-1 0,-1 z" />
</svg>
